Land_normalized_Motion_pl02
version=1
nRows=10
nColumns=43
inDegrees=yes
endheader
time		pelvis_tilt		pelvis_list		pelvis_rotation		pelvis_tx		pelvis_ty		pelvis_tz		hip_flexion_r		hip_adduction_r		hip_rotation_r		knee_angle_r		ankle_angle_r		subtalar_angle_r		mtp_angle_r		hip_flexion_l		hip_adduction_l		hip_rotation_l		knee_angle_l		ankle_angle_l		subtalar_angle_l		mtp_angle_l		lumbar_extension		lumbar_bending		lumbar_rotation		neck_flexion		neck_lateral_bending		neck_rotation		arm_flex_r		arm_add_r		arm_rot_r		elbow_flex_r		pro_sup_r		wrist_flex_r		wrist_dev_r		hand_finger_flex_r		arm_flex_l		arm_add_l		arm_rot_l		elbow_flex_l		pro_sup_l		wrist_flex_l		wrist_dev_l		hand_finger_flex_l		
3.783990		3.716736		-0.063985		87.662781		-0.051388		0.531391		0.490260		84.381872		-0.136854		0.626755		-115.998281		0.338548		9.787483		28.705147		82.447222		-2.710648		4.488881		-117.019841		11.603836		-9.266320		22.080576		-57.321593		-1.358966		5.529271		8.103977		7.201980		-3.436307		48.646785		-22.451689		-3.437238		74.207770		113.472398		-7.875006		-9.070840		-59.062717		53.721879		-43.889714		12.901372		99.848076		120.694808		-14.710952		-8.683946		-16.446304		
3.786970		3.639377		-0.503193		87.263836		-0.050928		0.527939		0.491064		85.370403		-0.090226		0.511356		-116.324976		0.483807		10.116462		28.723747		83.282338		-3.016426		4.135945		-117.387859		11.608388		-10.168011		21.864162		-57.707824		-1.839970		5.537686		8.527221		7.070719		-3.328760		50.784222		-22.992158		-2.350749		74.689452		113.819469		-7.394766		-9.228090		-59.274871		57.098977		-43.994740		14.752601		99.211548		121.343296		-14.240002		-8.664833		-16.835418		
3.789949		3.708758		-1.069589		86.879125		-0.050545		0.524230		0.491931		86.453480		-0.010299		0.209929		-116.609358		0.517666		10.294630		28.731798		84.284051		-3.358278		4.006794		-117.772504		11.781122		-10.694766		21.767903		-57.980257		-2.130036		5.440274		9.050894		6.581430		-3.021756		53.141489		-23.337339		-1.048724		75.010076		114.142424		-6.917434		-9.349705		-59.244349		59.988637		-44.350084		16.038006		98.859790		121.848044		-13.571858		-8.859320		-16.795272		
3.792929		3.371094		-1.328437		86.693505		-0.049874		0.521762		0.493112		87.161280		-0.154759		0.277075		-116.844923		0.586514		10.208078		28.767765		84.794284		-3.460450		3.357559		-117.818555		11.326566		-12.229366		21.273366		-58.596425		-2.857106		5.332060		9.372883		7.243829		-2.915361		55.047827		-23.942955		-0.376128		75.536068		114.572452		-7.231673		-9.179340		-60.132943		64.383799		-44.087001		18.803458		97.710754		123.155244		-13.037286		-9.150801		-17.439702		
3.795909		3.455268		-2.011158		86.240190		-0.049568		0.518045		0.493951		88.329689		-0.035838		-0.112942		-117.063559		0.689328		10.362401		28.776457		85.864706		-3.875014		3.253904		-118.147579		11.623089		-12.669224		21.186503		-58.720151		-3.162908		5.311577		9.942975		6.685507		-2.681782		57.352763		-24.231059		0.770247		75.778619		114.836363		-6.845811		-9.274946		-60.083418		67.041077		-44.183567		19.858553		97.305540		123.614784		-12.458264		-9.387156		-17.354403		
3.798889		3.525218		-2.591581		85.974652		-0.049046		0.514937		0.494944		89.283317		-0.050714		-0.542103		-117.216721		0.705800		10.327743		28.789756		86.771249		-4.173564		3.147683		-118.324709		11.704925		-13.348464		21.024854		-58.979757		-3.467216		5.170536		10.303586		6.510571		-2.353030		59.540675		-24.444663		1.826205		76.035536		115.119497		-6.847088		-9.322583		-60.255607		70.228039		-44.370580		21.434609		96.710881		124.356659		-11.855040		-9.831446		-17.292269		
3.801869		3.561566		-3.164172		85.687407		-0.048503		0.511988		0.495900		90.217138		-0.060605		-0.946189		-117.352509		0.816434		10.297167		28.806256		87.628899		-4.504803		3.003672		-118.471780		11.760835		-14.078211		20.830232		-59.220611		-3.843884		5.074357		10.671327		6.491393		-2.060641		61.670492		-24.640786		2.759394		76.177929		115.349087		-7.058231		-9.352753		-60.522717		73.433270		-44.316186		23.059807		95.961175		125.150543		-11.434388		-10.311381		-17.279365		
3.804848		3.592923		-3.755977		85.344686		-0.048203		0.509123		0.496813		91.167985		-0.060866		-1.318169		-117.466100		1.034436		10.338351		28.823995		88.465353		-4.864548		2.856693		-118.586987		11.849736		-14.709236		20.633257		-59.414039		-4.204483		5.047538		11.014044		6.514472		-1.818344		63.798738		-24.752788		3.531801		76.220047		115.463393		-7.369086		-9.397692		-60.795778		76.447904		-44.138543		24.579461		95.090048		125.885299		-11.200842		-10.790149		-17.250635		
3.807828		3.626095		-4.358621		84.989780		-0.047792		0.506193		0.497611		92.133857		-0.067335		-1.731440		-117.600054		1.330883		10.499631		28.839124		89.342778		-5.253834		2.774101		-118.776939		12.031467		-15.191507		20.474608		-59.551521		-4.599303		4.968749		11.332698		6.406033		-1.562781		65.848597		-24.767951		4.263729		76.145800		115.509147		-7.571458		-9.465044		-60.973465		79.225583		-43.848654		25.850278		94.287079		126.473131		-11.050002		-11.239095		-17.157505		
3.810808		3.634967		-4.952333		84.636140		-0.047571		0.503531		0.498408		93.064020		-0.098923		-2.090877		-117.699516		1.700124		10.746045		28.854656		90.156183		-5.623450		2.679439		-118.905435		12.205757		-15.569979		20.309494		-59.696695		-4.967084		4.874436		11.586850		6.364074		-1.294586		67.866061		-24.690703		4.868722		76.036890		115.479424		-7.821719		-9.545568		-61.170522		81.937222		-43.569766		27.121517		93.370864		127.019028		-11.007178		-11.742555		-17.028825		
